<svg width="16" height="17" viewBox="0 0 16 17" fill="none" xmlns="http://www.w3.org/2000/svg">
<g id="code-browser">
<path id="Icon" d="M14.6668 6.19238H1.3335M9.3335 11.859L11.0002 10.1924L9.3335 8.52572M6.66683 8.52572L5.00016 10.1924L6.66683 11.859M1.3335 5.39238L1.3335 10.9924C1.3335 12.1125 1.3335 12.6725 1.55148 13.1004C1.74323 13.4767 2.04919 13.7826 2.42551 13.9744C2.85334 14.1924 3.41339 14.1924 4.53349 14.1924H11.4668C12.5869 14.1924 13.147 14.1924 13.5748 13.9744C13.9511 13.7826 14.2571 13.4767 14.4488 13.1004C14.6668 12.6725 14.6668 12.1125 14.6668 10.9924V5.39238C14.6668 4.27228 14.6668 3.71223 14.4488 3.2844C14.2571 2.90808 13.9511 2.60212 13.5748 2.41037C13.147 2.19238 12.5869 2.19238 11.4668 2.19238L4.5335 2.19238C3.41339 2.19238 2.85334 2.19238 2.42552 2.41037C2.04919 2.60212 1.74323 2.90808 1.55148 3.2844C1.3335 3.71223 1.3335 4.27228 1.3335 5.39238Z" stroke="#525252" stroke-width="1.5" stroke-linecap="round" stroke-linejoin="round"/>
</g>
</svg>
