<svg xmlns="http://www.w3.org/2000/svg" width="12" height="12" viewBox="0 0 12 12" fill="none">
  <g clip-path="url(#clip0_600_512)">
    <path d="M5.25 1.0014C4.91247 1.00597 4.70985 1.02551 4.54601 1.10899C4.35785 1.20487 4.20487 1.35785 4.10899 1.54601C4.02551 1.70985 4.00597 1.91247 4.0014 2.25M9.75 1.0014C10.0875 1.00597 10.2902 1.02551 10.454 1.10899C10.6422 1.20487 10.7951 1.35785 10.891 1.54601C10.9745 1.70985 10.994 1.91247 10.9986 2.24999M10.9986 6.74999C10.994 7.08752 10.9745 7.29015 10.891 7.45399C10.7951 7.64215 10.6422 7.79513 10.454 7.89101C10.2902 7.97449 10.0875 7.99403 9.75 7.9986M11 4V5M7.00003 1H7.99998M2.6 11H6.4C6.96005 11 7.24008 11 7.45399 10.891C7.64215 10.7951 7.79513 10.6422 7.89101 10.454C8 10.2401 8 9.96005 8 9.4V5.6C8 5.03995 8 4.75992 7.89101 4.54601C7.79513 4.35785 7.64215 4.20487 7.45399 4.10899C7.24008 4 6.96005 4 6.4 4H2.6C2.03995 4 1.75992 4 1.54601 4.10899C1.35785 4.20487 1.20487 4.35785 1.10899 4.54601C1 4.75992 1 5.03995 1 5.6V9.4C1 9.96005 1 10.2401 1.10899 10.454C1.20487 10.6422 1.35785 10.7951 1.54601 10.891C1.75992 11 2.03995 11 2.6 11Z" stroke="#525252" stroke-width="0.7" stroke-linecap="round" stroke-linejoin="round"/>
  </g>
  <defs>
    <clipPath id="clip0_600_512">
      <rect width="12" height="12" fill="white"/>
    </clipPath>
  </defs>
</svg>