<svg width="11" height="12" viewBox="0 0 11 12" fill="none" xmlns="http://www.w3.org/2000/svg">
<path id="Icon" fill-rule="evenodd" clip-rule="evenodd" d="M5.5 0.5C2.46235 0.5 0 3.02446 0 6.1395C0 8.63074 1.57575 10.7448 3.76145 11.4902C4.03645 11.542 4.13655 11.368 4.13655 11.2183C4.13655 11.0848 4.13215 10.7296 4.1294 10.2595C2.5993 10.6001 2.27645 9.50338 2.27645 9.50338C2.02675 8.85144 1.66595 8.67803 1.66595 8.67803C1.16655 8.32898 1.7039 8.33574 1.7039 8.33574C2.25555 8.37515 2.54595 8.91675 2.54595 8.91675C3.03655 9.77812 3.8335 9.52928 4.14645 9.38515C4.19705 9.0209 4.33895 8.77262 4.49625 8.63187C3.27525 8.48943 1.991 8.00526 1.991 5.84449C1.991 5.22914 2.2055 4.72526 2.55695 4.33117C2.5003 4.18873 2.31165 3.61504 2.61085 2.83924C2.61085 2.83924 3.07285 2.68723 4.12335 3.41687C4.57202 3.29161 5.03494 3.22781 5.5 3.22714C5.9675 3.22939 6.43775 3.29188 6.8772 3.41687C7.92715 2.68723 8.38805 2.83867 8.38805 2.83867C8.68835 3.61504 8.49915 4.18873 8.44305 4.33117C8.79505 4.72526 9.00845 5.22914 9.00845 5.84449C9.00845 8.01089 7.722 8.48774 6.49715 8.62737C6.6946 8.80133 6.87005 9.14532 6.87005 9.67172C6.87005 10.425 6.86345 11.0336 6.86345 11.2183C6.86345 11.3691 6.96245 11.5448 7.24185 11.4896C8.33706 11.1136 9.28914 10.3948 9.96351 9.43473C10.6379 8.47468 11.0005 7.32196 11 6.1395C11 3.02446 8.5371 0.5 5.5 0.5Z" fill="#282A36"/>
</svg>
