<svg width="14" height="14" viewBox="0 0 14 14" fill="none" xmlns="http://www.w3.org/2000/svg">
<g id="image-plus">
<path id="Icon" d="M7.29167 1.74996H4.55C3.56991 1.74996 3.07986 1.74996 2.70552 1.9407C2.37623 2.10848 2.10852 2.37619 1.94074 2.70548C1.75 3.07982 1.75 3.56987 1.75 4.54996V9.44996C1.75 10.4301 1.75 10.9201 1.94074 11.2944C2.10852 11.6237 2.37623 11.8914 2.70552 12.0592C3.07986 12.25 3.56991 12.25 4.55 12.25H9.91667C10.4591 12.25 10.7304 12.25 10.9529 12.1903C11.5568 12.0285 12.0286 11.5568 12.1904 10.9529C12.25 10.7304 12.25 10.4591 12.25 9.91663M11.0833 4.66663V1.16663M9.33333 2.91663H12.8333M6.125 4.95829C6.125 5.60262 5.60267 6.12496 4.95833 6.12496C4.314 6.12496 3.79167 5.60262 3.79167 4.95829C3.79167 4.31396 4.314 3.79163 4.95833 3.79163C5.60267 3.79163 6.125 4.31396 6.125 4.95829ZM8.74419 6.95221L3.80984 11.438C3.53229 11.6903 3.39352 11.8165 3.38125 11.9257C3.37061 12.0205 3.40693 12.1144 3.47852 12.1774C3.56112 12.25 3.74866 12.25 4.12375 12.25H9.59932C10.4388 12.25 10.8586 12.25 11.1883 12.1089C11.6022 11.9319 11.9319 11.6021 12.109 11.1882C12.25 10.8586 12.25 10.4388 12.25 9.59928C12.25 9.31681 12.25 9.17558 12.2191 9.04405C12.1803 8.87875 12.1059 8.72392 12.0011 8.59036C11.9176 8.48408 11.8074 8.39585 11.5868 8.21939L9.95507 6.91401C9.73431 6.73741 9.62393 6.6491 9.50238 6.61794C9.39524 6.59047 9.2825 6.59403 9.17731 6.6282C9.05797 6.66696 8.95337 6.76205 8.74419 6.95221Z" stroke="black" stroke-linecap="round" stroke-linejoin="round"/>
</g>
</svg>
