<svg xmlns="http://www.w3.org/2000/svg" width="14" height="14" viewBox="0 0 14 14" fill="none">
  <g clip-path="url(#clip0_600_483)">
    <path d="M4.08317 12.8333V6.41663M1.1665 7.58329V11.6666C1.1665 12.311 1.68884 12.8333 2.33317 12.8333H10.1651C11.0289 12.8333 11.7635 12.2031 11.8948 11.3494L12.523 7.26606C12.6861 6.20598 11.8659 5.24996 10.7934 5.24996H8.74984C8.42767 5.24996 8.1665 4.98879 8.1665 4.66663V2.60503C8.1665 1.81062 7.52251 1.16663 6.7281 1.16663C6.53862 1.16663 6.36691 1.27821 6.28995 1.45136L4.23713 6.07021C4.14351 6.28086 3.9346 6.41663 3.70408 6.41663H2.33317C1.68884 6.41663 1.1665 6.93896 1.1665 7.58329Z" stroke="#525252" stroke-linecap="round" stroke-linejoin="round"/>
  </g>
  <defs>
    <clipPath id="clip0_600_483">
      <rect width="14" height="14" fill="white"/>
    </clipPath>
  </defs>
</svg>