<svg width="58" height="11" viewBox="0 0 58 11" fill="none" xmlns="http://www.w3.org/2000/svg">
<g id="Vector">
<path d="M1.77059 3.06832H0.644287V2.22228H1.77059V0.609152H2.77447V2.22228H4.35375V3.06832H2.77447V6.46379C2.77447 6.70444 2.82344 6.87741 2.92138 6.98269C3.02748 7.08046 3.20704 7.12934 3.46005 7.12934H4.54963V7.97539H3.39884C2.8112 7.97539 2.39088 7.85506 2.13787 7.61441C1.89302 7.37375 1.77059 6.99397 1.77059 6.47507V3.06832Z" fill="#13171B"/>
<path d="M7.78403 8.04307C7.18007 8.04307 6.6414 7.91898 6.16803 7.67081C5.70281 7.42264 5.33962 7.0767 5.07845 6.63299C4.81728 6.18929 4.68669 5.6779 4.68669 5.09883C4.68669 4.51976 4.81728 4.00837 5.07845 3.56467C5.33962 3.12097 5.70281 2.77503 6.16803 2.52685C6.6414 2.27868 7.18007 2.15459 7.78403 2.15459C8.38799 2.15459 8.92258 2.27868 9.38779 2.52685C9.86116 2.77503 10.2284 3.12097 10.4896 3.56467C10.7508 4.00837 10.8814 4.51976 10.8814 5.09883C10.8814 5.6779 10.7508 6.18929 10.4896 6.63299C10.2284 7.0767 9.86116 7.42264 9.38779 7.67081C8.92258 7.91898 8.38799 8.04307 7.78403 8.04307ZM7.78403 7.21959C8.19211 7.21959 8.55122 7.12934 8.86136 6.94885C9.17967 6.76836 9.42452 6.51643 9.59591 6.19305C9.7673 5.86967 9.853 5.50493 9.853 5.09883C9.853 4.69273 9.7673 4.32799 9.59591 4.00461C9.42452 3.68124 9.17967 3.4293 8.86136 3.24881C8.55122 3.06832 8.19211 2.97808 7.78403 2.97808C7.37595 2.97808 7.01275 3.06832 6.69445 3.24881C6.38431 3.4293 6.14354 3.68124 5.97215 4.00461C5.80075 4.32799 5.71506 4.69273 5.71506 5.09883C5.71506 5.50493 5.80075 5.86967 5.97215 6.19305C6.14354 6.51643 6.38431 6.76836 6.69445 6.94885C7.01275 7.12934 7.37595 7.21959 7.78403 7.21959Z" fill="#13171B"/>
<path d="M17.7566 2.22228V7.69337C17.7566 9.43058 16.7241 10.2992 14.6592 10.2992C13.8512 10.2992 13.1901 10.13 12.6759 9.79156C12.1699 9.45315 11.8761 8.97184 11.7945 8.34764H12.8229C12.9045 8.70862 13.1126 8.98688 13.4472 9.18241C13.7818 9.37794 14.2103 9.47571 14.7327 9.47571C16.0793 9.47571 16.7527 8.87031 16.7527 7.65953V6.98269C16.3038 7.68961 15.5896 8.04307 14.6102 8.04307C14.0308 8.04307 13.5125 7.9265 13.0555 7.69337C12.6066 7.46024 12.2515 7.12182 11.9904 6.67812C11.7374 6.23441 11.6109 5.70798 11.6109 5.09883C11.6109 4.51976 11.7374 4.00837 11.9904 3.56467C12.2515 3.12097 12.6107 2.77503 13.0677 2.52685C13.5248 2.27868 14.0389 2.15459 14.6102 2.15459C15.1163 2.15459 15.5488 2.2486 15.9079 2.43661C16.2671 2.6171 16.5486 2.87655 16.7527 3.21497L16.8873 2.22228H17.7566ZM14.7082 7.21959C15.1081 7.21959 15.4631 7.1331 15.7733 6.96013C16.0916 6.77964 16.3364 6.53147 16.5078 6.21561C16.6792 5.89223 16.7649 5.52749 16.7649 5.12139C16.7649 4.70777 16.6792 4.33927 16.5078 4.01589C16.3364 3.685 16.0916 3.4293 15.7733 3.24881C15.4631 3.06832 15.1081 2.97808 14.7082 2.97808C14.0879 2.97808 13.586 3.17737 13.2024 3.57595C12.8269 3.96701 12.6392 4.47464 12.6392 5.09883C12.6392 5.72303 12.8269 6.23441 13.2024 6.63299C13.586 7.02406 14.0879 7.21959 14.7082 7.21959Z" fill="#13171B"/>
<path d="M18.7024 5.09883C18.7024 4.51224 18.8248 3.99709 19.0697 3.55339C19.3227 3.10969 19.6736 2.76751 20.1225 2.52685C20.5714 2.27868 21.0856 2.15459 21.6651 2.15459C22.2364 2.15459 22.7424 2.26364 23.1831 2.48173C23.6238 2.69982 23.9707 3.01568 24.2237 3.4293C24.4767 3.84293 24.6114 4.32799 24.6277 4.8845C24.6277 4.96723 24.6196 5.09883 24.6032 5.27932H19.7552V5.35829C19.7716 5.92232 19.9593 6.37354 20.3184 6.71196C20.6775 7.05038 21.1468 7.21959 21.7263 7.21959C22.1752 7.21959 22.5547 7.11806 22.8648 6.91501C23.1831 6.70444 23.3953 6.4149 23.5014 6.0464H24.5175C24.3951 6.63299 24.0891 7.1143 23.5994 7.49032C23.1097 7.85882 22.5098 8.04307 21.7997 8.04307C21.1794 8.04307 20.6367 7.92274 20.1715 7.68209C19.7063 7.43392 19.3431 7.08798 19.0819 6.64427C18.8289 6.19305 18.7024 5.6779 18.7024 5.09883ZM23.5871 4.51224C23.5382 4.02341 23.3382 3.64363 22.9872 3.3729C22.6445 3.10217 22.2078 2.9668 21.6773 2.9668C21.2039 2.9668 20.7877 3.10969 20.4286 3.39546C20.0695 3.68124 19.8654 4.0535 19.8164 4.51224H23.5871Z" fill="#13171B"/>
<path d="M25.9164 3.06832H24.7901V2.22228H25.9164V0.609152H26.9203V2.22228H28.4996V3.06832H26.9203V6.46379C26.9203 6.70444 26.9693 6.87741 27.0672 6.98269C27.1733 7.08046 27.3529 7.12934 27.6059 7.12934H28.6955V7.97539H27.5447C26.9571 7.97539 26.5367 7.85506 26.2837 7.61441C26.0389 7.37375 25.9164 6.99397 25.9164 6.47507V3.06832Z" fill="#13171B"/>
<path d="M32.2689 2.15459C33.028 2.15459 33.6401 2.36517 34.1053 2.78631C34.5705 3.20745 34.8031 3.86925 34.8031 4.77169V7.97539H33.7992V4.8281C33.7992 4.23399 33.6523 3.78276 33.3585 3.47443C33.0647 3.15857 32.6444 3.00064 32.0975 3.00064C31.5181 3.00064 31.0569 3.18865 30.7141 3.56467C30.3795 3.94069 30.2122 4.45208 30.2122 5.09883V7.97539H29.2083V0.0789639H30.2122V3.16985C30.4162 2.86903 30.6856 2.62462 31.0202 2.43661C31.363 2.2486 31.7792 2.15459 32.2689 2.15459Z" fill="#13171B"/>
<path d="M35.6611 5.09883C35.6611 4.51224 35.7835 3.99709 36.0283 3.55339C36.2813 3.10969 36.6323 2.76751 37.0812 2.52685C37.5301 2.27868 38.0443 2.15459 38.6237 2.15459C39.195 2.15459 39.7011 2.26364 40.1418 2.48173C40.5825 2.69982 40.9294 3.01568 41.1824 3.4293C41.4354 3.84293 41.5701 4.32799 41.5864 4.8845C41.5864 4.96723 41.5782 5.09883 41.5619 5.27932H36.7139V5.35829C36.7302 5.92232 36.9179 6.37354 37.2771 6.71196C37.6362 7.05038 38.1055 7.21959 38.6849 7.21959C39.1338 7.21959 39.5133 7.11806 39.8235 6.91501C40.1418 6.70444 40.354 6.4149 40.4601 6.0464H41.4762C41.3538 6.63299 41.0477 7.1143 40.558 7.49032C40.0683 7.85882 39.4685 8.04307 38.7584 8.04307C38.1381 8.04307 37.5954 7.92274 37.1301 7.68209C36.6649 7.43392 36.3017 7.08798 36.0406 6.64427C35.7876 6.19305 35.6611 5.6779 35.6611 5.09883ZM40.5458 4.51224C40.4968 4.02341 40.2969 3.64363 39.9459 3.3729C39.6031 3.10217 39.1665 2.9668 38.636 2.9668C38.1626 2.9668 37.7464 3.10969 37.3872 3.39546C37.0281 3.68124 36.8241 4.0535 36.7751 4.51224H40.5458Z" fill="#13171B"/>
<path d="M45.7014 2.22228V3.12473H45.1995C44.6037 3.12473 44.1752 3.30898 43.914 3.67748C43.661 4.04598 43.5345 4.50096 43.5345 5.04243V7.97539H42.5306V2.22228H43.3998L43.5345 3.09088C43.714 2.82767 43.9466 2.6171 44.2323 2.45917C44.518 2.30124 44.9138 2.22228 45.4198 2.22228H45.7014Z" fill="#13171B"/>
<path d="M55.9264 7.12934V7.97539H55.3755C54.9755 7.97539 54.6899 7.90018 54.5185 7.74977C54.3471 7.59937 54.2573 7.37751 54.2492 7.08422C53.7676 7.72345 53.0698 8.04307 52.1557 8.04307C51.462 8.04307 50.9029 7.89266 50.4785 7.59185C50.0622 7.29103 49.8541 6.88117 49.8541 6.36226C49.8541 5.78319 50.0663 5.33948 50.4907 5.03115C50.9233 4.72281 51.5477 4.56864 52.3638 4.56864H54.2002V4.17382C54.2002 3.7978 54.0614 3.50451 53.784 3.29394C53.5146 3.08336 53.1351 2.97808 52.6454 2.97808C52.2128 2.97808 51.8537 3.06832 51.5681 3.24881C51.2906 3.42178 51.1192 3.65491 51.0539 3.94821H50.05C50.1235 3.38418 50.3928 2.94424 50.858 2.62838C51.3314 2.31252 51.9435 2.15459 52.6944 2.15459C53.4942 2.15459 54.1104 2.33508 54.543 2.69606C54.9837 3.04952 55.2041 3.56091 55.2041 4.23023V6.71196C55.2041 6.99021 55.3428 7.12934 55.6203 7.12934H55.9264ZM54.2002 5.34701H52.2659C51.3355 5.34701 50.8703 5.66662 50.8703 6.30586C50.8703 6.59163 50.9927 6.821 51.2375 6.99397C51.4824 7.16694 51.8129 7.25343 52.2292 7.25343C52.8413 7.25343 53.3228 7.10678 53.6738 6.81348C54.0247 6.51267 54.2002 6.11785 54.2002 5.62902V5.34701Z" fill="#13171B"/>
<path d="M56.9987 0C57.1865 0 57.3415 0.056403 57.464 0.169209C57.5864 0.282015 57.6476 0.424902 57.6476 0.597872C57.6476 0.770841 57.5864 0.913728 57.464 1.02653C57.3415 1.13934 57.1865 1.19574 56.9987 1.19574C56.811 1.19574 56.656 1.13934 56.5335 1.02653C56.4111 0.913728 56.3499 0.770841 56.3499 0.597872C56.3499 0.424902 56.4111 0.282015 56.5335 0.169209C56.656 0.056403 56.811 0 56.9987 0ZM56.4968 2.22228H57.5007V7.97539H56.4968V2.22228Z" fill="#13171B"/>
</g>
</svg>
