<svg width="79" height="24" viewBox="0 0 79 24" fill="none" xmlns="http://www.w3.org/2000/svg">
<path d="M27.4253 14.8781H28.1965V12.2107H29.258V14.8781H30.4712V15.8134H29.258V20.8182H28.1965V15.8134H27.4253V14.8781Z" fill="black"/>
<path d="M33.4032 14.7263C35.0965 14.7263 36.4871 16.1293 36.4871 17.8482C36.4871 19.567 35.0965 20.97 33.4032 20.97C31.71 20.97 30.3193 19.567 30.3193 17.8482C30.3193 16.1293 31.71 14.7263 33.4032 14.7263ZM33.4032 19.9844C34.5538 19.9844 35.4512 19.0738 35.4512 17.8482C35.4512 16.6226 34.5538 15.7119 33.4032 15.7119C32.2526 15.7119 31.3552 16.6217 31.3552 17.8482C31.3552 19.0747 32.2526 19.9844 33.4032 19.9844Z" fill="black"/>
<path d="M39.9605 23.963C38.4939 23.963 37.0663 22.9395 37.0663 21.2709H38.1031C38.1913 22.3959 38.9881 22.9898 39.9613 22.9898C41.0864 22.9898 41.9458 22.2062 41.9458 20.8915V19.7947C41.5417 20.5279 40.6566 20.97 39.8599 20.97C38.1666 20.97 36.8774 19.5794 36.8774 17.8482C36.8774 16.117 38.1666 14.7263 39.8599 14.7263C40.6558 14.7263 41.5408 15.1684 41.9458 15.9017V14.8781H43.0073V20.8915C43.0073 22.6739 41.6423 23.963 39.9613 23.963H39.9605ZM39.9728 19.9844C41.1234 19.9844 42.0208 19.0738 42.0208 17.8482C42.0208 16.6226 41.1234 15.7119 39.9728 15.7119C38.8222 15.7119 37.9248 16.6217 37.9248 17.8482C37.9248 19.0747 38.8222 19.9844 39.9728 19.9844Z" fill="black"/>
<path d="M48.7425 18.7588L49.6019 19.2388C49.0081 20.3515 47.9969 20.97 46.8339 20.97C45.1653 20.97 43.8003 19.567 43.8003 17.8482C43.8003 16.1293 45.1653 14.7263 46.8339 14.7263C48.5025 14.7263 49.7281 15.9396 49.7281 18.0635H44.8238C44.9253 19.2008 45.7971 19.9844 46.8339 19.9844C47.8707 19.9844 48.3251 19.5423 48.7425 18.7588ZM44.8874 17.2164H48.603C48.4769 16.3693 47.8451 15.6872 46.8339 15.6872C45.8986 15.6872 45.1397 16.3067 44.8874 17.2164Z" fill="black"/>
<path d="M49.8428 14.8781H50.614V12.2107H51.6755V14.8781H52.8887V15.8134H51.6755V20.8182H50.614V15.8134H49.8428V14.8781Z" fill="black"/>
<path d="M55.9198 15.674C54.9845 15.674 54.3271 16.3949 54.3271 17.5702V20.8182H53.2656V12.2107H54.3271V15.8002C54.7312 15.1552 55.3886 14.7255 56.2736 14.7255C57.6387 14.7255 58.3719 15.6987 58.3719 16.8493V20.8182H57.3104V17.1149C57.3104 16.2052 56.7925 15.674 55.9198 15.674Z" fill="black"/>
<path d="M64.074 18.7588L64.9334 19.2388C64.3396 20.3515 63.3284 20.97 62.1654 20.97C60.4969 20.97 59.1318 19.567 59.1318 17.8482C59.1318 16.1293 60.4969 14.7263 62.1654 14.7263C63.834 14.7263 65.0596 15.9396 65.0596 18.0635H60.1554C60.2569 19.2008 61.1286 19.9844 62.1654 19.9844C63.2022 19.9844 63.6566 19.5423 64.074 18.7588ZM60.2189 17.2164H63.9346C63.8084 16.3693 63.1766 15.6872 62.1654 15.6872C61.2301 15.6872 60.4713 16.3067 60.2189 17.2164Z" fill="black"/>
<path d="M69.0874 16.0411C68.8854 15.8646 68.5818 15.7755 68.2783 15.7755C67.3933 15.7755 66.8877 16.5467 66.8877 17.5826V20.8182H65.8262V14.8781H66.8877V15.8893C67.178 15.2443 67.7595 14.7519 68.5306 14.7519C68.9101 14.7519 69.2507 14.8781 69.466 15.0422L69.0865 16.0402L69.0874 16.0411Z" fill="black"/>
<path d="M76.5601 14.8781V20.8182H75.4986V19.7947C75.0945 20.5279 74.2095 20.97 73.4136 20.97C71.7194 20.97 70.4312 19.5794 70.4312 17.8482C70.4312 16.117 71.7203 14.7263 73.4136 14.7263C74.2095 14.7263 75.0945 15.1684 75.4986 15.9017V14.8781H76.5601ZM73.5265 19.9844C74.6771 19.9844 75.5745 19.0738 75.5745 17.8482C75.5745 16.6226 74.6771 15.7119 73.5265 15.7119C72.3759 15.7119 71.4785 16.6217 71.4785 17.8482C71.4785 19.0747 72.3759 19.9844 73.5265 19.9844Z" fill="black"/>
<path d="M78.8227 14.8781V20.8182H77.7612V14.8781H78.8227Z" fill="black"/>
<path d="M77.5845 12.8045C77.5845 12.4251 77.9127 12.0969 78.2921 12.0969C78.6716 12.0969 78.9998 12.426 78.9998 12.8045C78.9998 13.1831 78.6839 13.5122 78.2921 13.5122C77.9004 13.5122 77.5845 13.1963 77.5845 12.8045Z" fill="black"/>
<path d="M68.4502 20.1865C68.4502 19.807 68.7784 19.4788 69.1579 19.4788C69.5373 19.4788 69.8655 19.8079 69.8655 20.1865C69.8655 20.565 69.5496 20.8941 69.1579 20.8941C68.7661 20.8941 68.4502 20.5782 68.4502 20.1865Z" fill="#FC4C02"/>
<path d="M28.1183 9V2.7H29.0003L31.1423 7.137L33.2663 2.7H34.1573V9H33.4013V4.059L31.4213 8.172H30.8543L28.8743 4.095V9H28.1183ZM36.9671 9.108C36.6071 9.108 36.3071 9.042 36.0671 8.91C35.8271 8.772 35.6471 8.592 35.5271 8.37C35.4071 8.142 35.3471 7.899 35.3471 7.641C35.3471 7.329 35.4251 7.065 35.5811 6.849C35.7431 6.627 35.9681 6.459 36.2561 6.345C36.5441 6.231 36.8801 6.174 37.2641 6.174H38.4431C38.4431 5.868 38.4071 5.613 38.3351 5.409C38.2631 5.205 38.1461 5.052 37.9841 4.95C37.8221 4.848 37.6061 4.797 37.3361 4.797C37.0661 4.797 36.8351 4.866 36.6431 5.004C36.4511 5.136 36.3311 5.334 36.2831 5.598H35.5091C35.5451 5.286 35.6501 5.025 35.8241 4.815C35.9981 4.599 36.2171 4.437 36.4811 4.329C36.7511 4.215 37.0361 4.158 37.3361 4.158C37.7621 4.158 38.1131 4.236 38.3891 4.392C38.6651 4.542 38.8691 4.755 39.0011 5.031C39.1331 5.301 39.1991 5.622 39.1991 5.994V9H38.5241L38.4791 8.19C38.4191 8.316 38.3411 8.436 38.2451 8.55C38.1551 8.658 38.0471 8.754 37.9211 8.838C37.7951 8.922 37.6511 8.988 37.4891 9.036C37.3331 9.084 37.1591 9.108 36.9671 9.108ZM37.0751 8.469C37.2731 8.469 37.4561 8.424 37.6241 8.334C37.7921 8.244 37.9361 8.124 38.0561 7.974C38.1821 7.818 38.2781 7.644 38.3441 7.452C38.4101 7.26 38.4431 7.059 38.4431 6.849V6.759H37.3271C37.0451 6.759 36.8141 6.795 36.6341 6.867C36.4601 6.939 36.3341 7.041 36.2561 7.173C36.1781 7.299 36.1391 7.443 36.1391 7.605C36.1391 7.779 36.1751 7.932 36.2471 8.064C36.3191 8.19 36.4241 8.289 36.5621 8.361C36.7061 8.433 36.8771 8.469 37.0751 8.469ZM42.4011 9.108C41.9811 9.108 41.6091 9 41.2851 8.784C40.9611 8.568 40.7091 8.274 40.5291 7.902C40.3491 7.524 40.2591 7.098 40.2591 6.624C40.2591 6.144 40.3491 5.721 40.5291 5.355C40.7091 4.983 40.9611 4.692 41.2851 4.482C41.6091 4.266 41.9841 4.158 42.4101 4.158C42.7821 4.158 43.1001 4.233 43.3641 4.383C43.6341 4.533 43.8471 4.743 44.0031 5.013V2.52H44.7591V9H44.0751L44.0121 8.244C43.9221 8.394 43.8021 8.535 43.6521 8.667C43.5081 8.799 43.3311 8.907 43.1211 8.991C42.9171 9.069 42.6771 9.108 42.4011 9.108ZM42.5001 8.451C42.8001 8.451 43.0611 8.379 43.2831 8.235C43.5051 8.085 43.6761 7.875 43.7961 7.605C43.9161 7.329 43.9761 7.005 43.9761 6.633C43.9761 6.261 43.9161 5.94 43.7961 5.67C43.6761 5.394 43.5051 5.184 43.2831 5.04C43.0611 4.89 42.8001 4.815 42.5001 4.815C42.2181 4.815 41.9661 4.89 41.7441 5.04C41.5221 5.184 41.3481 5.394 41.2221 5.67C41.0961 5.94 41.0331 6.261 41.0331 6.633C41.0331 7.005 41.0961 7.329 41.2221 7.605C41.3481 7.875 41.5221 8.085 41.7441 8.235C41.9661 8.379 42.2181 8.451 42.5001 8.451ZM47.9999 9.108C47.5799 9.108 47.2079 9.006 46.8839 8.802C46.5599 8.598 46.3049 8.31 46.1189 7.938C45.9389 7.566 45.8489 7.131 45.8489 6.633C45.8489 6.135 45.9389 5.7 46.1189 5.328C46.3049 4.956 46.5599 4.668 46.8839 4.464C47.2139 4.26 47.5919 4.158 48.0179 4.158C48.4739 4.158 48.8549 4.26 49.1609 4.464C49.4669 4.668 49.6979 4.941 49.8539 5.283C50.0099 5.625 50.0879 6 50.0879 6.408C50.0879 6.468 50.0879 6.528 50.0879 6.588C50.0879 6.648 50.0849 6.72 50.0789 6.804H46.4159V6.219H49.3499C49.3379 5.757 49.2029 5.406 48.9449 5.166C48.6929 4.92 48.3779 4.797 47.9999 4.797C47.7479 4.797 47.5139 4.86 47.2979 4.986C47.0879 5.106 46.9169 5.286 46.7849 5.526C46.6529 5.766 46.5869 6.066 46.5869 6.426V6.678C46.5869 7.074 46.6529 7.407 46.7849 7.677C46.9169 7.941 47.0879 8.139 47.2979 8.271C47.5139 8.403 47.7479 8.469 47.9999 8.469C48.3359 8.469 48.5999 8.406 48.7919 8.28C48.9839 8.148 49.1249 7.962 49.2149 7.722H49.9619C49.8899 7.986 49.7639 8.223 49.5839 8.433C49.4099 8.643 49.1879 8.808 48.9179 8.928C48.6539 9.048 48.3479 9.108 47.9999 9.108ZM55.9106 9.108C55.6226 9.108 55.3736 9.066 55.1636 8.982C54.9596 8.892 54.7856 8.781 54.6416 8.649C54.5036 8.517 54.3896 8.388 54.2996 8.262L54.2366 9H53.5526V2.52H54.3086V5.013C54.4526 4.731 54.6656 4.518 54.9476 4.374C55.2296 4.23 55.5446 4.158 55.8926 4.158C56.3246 4.158 56.7026 4.263 57.0266 4.473C57.3506 4.683 57.6026 4.974 57.7826 5.346C57.9626 5.712 58.0526 6.135 58.0526 6.615C58.0526 7.089 57.9626 7.515 57.7826 7.893C57.6026 8.271 57.3506 8.568 57.0266 8.784C56.7086 9 56.3366 9.108 55.9106 9.108ZM55.8116 8.451C56.0936 8.451 56.3426 8.379 56.5586 8.235C56.7806 8.085 56.9546 7.875 57.0806 7.605C57.2126 7.329 57.2786 7.005 57.2786 6.633C57.2786 6.261 57.2126 5.94 57.0806 5.67C56.9546 5.394 56.7806 5.184 56.5586 5.04C56.3426 4.89 56.0936 4.815 55.8116 4.815C55.5116 4.815 55.2506 4.89 55.0286 5.04C54.8066 5.184 54.6356 5.394 54.5156 5.67C54.3956 5.94 54.3356 6.261 54.3356 6.633C54.3356 7.005 54.3956 7.329 54.5156 7.605C54.6356 7.875 54.8066 8.085 55.0286 8.235C55.2506 8.379 55.5116 8.451 55.8116 8.451ZM59.3219 10.98L60.3929 8.496H60.1319L58.3589 4.266H59.1779L60.6449 7.911L62.1749 4.266H62.9579L60.1049 10.98H59.3219ZM64.0976 9.045C63.9536 9.045 63.8306 8.997 63.7286 8.901C63.6326 8.799 63.5846 8.676 63.5846 8.532C63.5846 8.388 63.6326 8.268 63.7286 8.172C63.8306 8.07 63.9536 8.019 64.0976 8.019C64.2536 8.019 64.3766 8.07 64.4666 8.172C64.5626 8.268 64.6106 8.388 64.6106 8.532C64.6106 8.676 64.5626 8.799 64.4666 8.901C64.3766 8.997 64.2536 9.045 64.0976 9.045ZM64.0976 5.184C63.9536 5.184 63.8306 5.136 63.7286 5.04C63.6326 4.938 63.5846 4.815 63.5846 4.671C63.5846 4.527 63.6326 4.407 63.7286 4.311C63.8306 4.209 63.9536 4.158 64.0976 4.158C64.2536 4.158 64.3766 4.209 64.4666 4.311C64.5626 4.407 64.6106 4.527 64.6106 4.671C64.6106 4.815 64.5626 4.938 64.4666 5.04C64.3766 5.136 64.2536 5.184 64.0976 5.184Z" fill="#6B7280"/>
<path d="M19.0742 5.05463C17.7116 2.69465 14.6954 1.88692 12.3354 3.24949C10.8486 4.10737 9.98419 5.61165 9.88281 7.20532L14.8044 7.21186V7.83755H9.88281C9.92859 8.57443 10.1357 9.30586 10.5303 9.98932C11.8929 12.3493 14.9091 13.157 17.269 11.7945C19.629 10.4319 20.4368 7.4157 19.0742 5.05572V5.05463Z" fill="#EF2CC1"/>
<path d="M0.661884 5.06008C-0.700689 7.42006 0.108134 10.4362 2.46702 11.7988C3.95386 12.6567 5.68923 12.6545 7.1183 11.9449L4.66349 7.67949L5.20525 7.36773L7.66551 11.6299C8.2803 11.2222 8.81116 10.6772 9.20576 9.99368C10.5683 7.63371 9.75951 4.61752 7.40062 3.25494C5.04065 1.89237 2.02446 2.70119 0.661884 5.06008Z" fill="#C6A8F4"/>
<path d="M9.86768 21C12.5917 21 14.8013 18.7915 14.8013 16.0664C14.8013 14.3506 13.9314 12.8485 12.6016 11.9645L10.1358 16.2234L9.59408 15.9094L12.0543 11.6473C11.3938 11.3192 10.6558 11.1317 9.86768 11.1317C7.14363 11.1317 4.93408 13.3402 4.93408 16.0653C4.93408 18.7894 7.14254 20.9989 9.86768 20.9989V21Z" fill="#FC4C02"/>
</svg>
