<svg width="19" height="18" viewBox="0 0 19 18" fill="none" xmlns="http://www.w3.org/2000/svg">
<path d="M17.8071 2.30337C16.5351 0.100156 13.7192 -0.653923 11.516 0.61814C10.128 1.41903 9.32096 2.82339 9.22632 4.3112L13.821 4.3173V4.90143H9.22632C9.26906 5.58936 9.46241 6.27221 9.8308 6.91028C11.1029 9.11349 13.9187 9.86757 16.1219 8.5955C18.3251 7.32344 19.0792 4.5076 17.8071 2.30439V2.30337Z" fill="#EF2CC1"/>
<path d="M0.617918 2.30846C-0.654145 4.51167 0.100951 7.32751 2.30315 8.59958C3.69122 9.40047 5.31132 9.39843 6.64546 8.73594L4.35371 4.75387L4.85949 4.46282L7.15632 8.44184C7.73028 8.06124 8.22587 7.55241 8.59426 6.91435C9.86633 4.71113 9.11123 1.89529 6.90903 0.623228C4.70582 -0.648835 1.88998 0.106261 0.617918 2.30846Z" fill="#C6A8F4"/>
<path d="M9.21209 17.1895C11.7552 17.1895 13.818 15.1278 13.818 12.5836C13.818 10.9819 13.0059 9.57954 11.7644 8.75423L9.46243 12.7302L8.95666 12.4371L11.2535 8.45809C10.6368 8.15178 9.94785 7.97675 9.21209 7.97675C6.66898 7.97675 4.6062 10.0385 4.6062 12.5826C4.6062 15.1257 6.66796 17.1885 9.21209 17.1885V17.1895Z" fill="#FC4C02"/>
</svg>
