<svg xmlns="http://www.w3.org/2000/svg" width="14" height="14" viewBox="0 0 14 14" fill="none">
  <g clip-path="url(#clip0_600_482)">
    <path d="M4.08317 1.16671V7.58337M1.1665 6.41671V2.33337C1.1665 1.68904 1.68884 1.16671 2.33317 1.16671H10.1651C11.0289 1.16671 11.7635 1.7969 11.8948 2.65061L12.523 6.73394C12.6861 7.79402 11.8659 8.75004 10.7934 8.75004H8.74984C8.42767 8.75004 8.1665 9.01121 8.1665 9.33337V11.395C8.1665 12.1894 7.52251 12.8334 6.7281 12.8334C6.53862 12.8334 6.36691 12.7218 6.28995 12.5486L4.23713 7.92979C4.14351 7.71914 3.9346 7.58337 3.70408 7.58337H2.33317C1.68884 7.58337 1.1665 7.06104 1.1665 6.41671Z" stroke="#525252" stroke-linecap="round" stroke-linejoin="round"/>
  </g>
  <defs>
    <clipPath id="clip0_600_482">
      <rect width="14" height="14" fill="white" transform="matrix(1 0 0 -1 0 14)"/>
    </clipPath>
  </defs>
</svg>